<svg xmlns="http://www.w3.org/2000/svg" viewBox="0 0 108.208 28.939"><defs><style>.a{fill:#fff;}.b{fill:#e84d5f;}</style></defs><path className="a" d="M436.61,31.569H431.1V4.4h12.212a9.068,9.068,0,1,1,0,18.137h-6.7Zm0-14.578h6.7a3.541,3.541,0,1,0,0-7.081h-6.7Z" transform="translate(-353.223 -3.605)"/><rect className="a" width="5.51" height="27.567" transform="translate(102.698 0.397)"/><g transform="translate(25.778 0.397)"><rect className="a" width="5.51" height="27.567"/><path className="a" d="M157.9,122.1" transform="translate(-155.154 -100.44)"/><path className="a" d="M160.787,2.2,146.1,20.156l4.281,3.486L167.922,2.2Z" transform="translate(-145.486 -2.2)"/><path className="a" d="M187.669,81.55,174.463,65.4,170.2,68.9,180.551,81.55Z" transform="translate(-165.232 -53.983)"/></g><path className="a" d="M11.038,28.362A11.04,11.04,0,0,1,0,17.342v-6.3a11.02,11.02,0,0,1,3.234-7.8,11.038,11.038,0,0,1,18.841,7.8v6.3A11.009,11.009,0,0,1,11.038,28.362Zm0-22.852a5.52,5.52,0,0,0-5.51,5.51v6.323a5.51,5.51,0,0,0,11.019,0v-6.3A5.524,5.524,0,0,0,11.038,5.51Z"/><path className="b" d="M291.482,110.875l-2.782-4.751L299.141,100l4.444,3.794Z" transform="translate(-236.547 -81.935)"/><path className="b" d="M334,110.875l2.782-4.751L326.344,100l-4.444,3.794Z" transform="translate(-263.75 -81.935)"/><path className="a" d="M279.028,30.742l-5.528-.975L283.743,2.2h5.889Z" transform="translate(-224.093 -1.803)"/><path className="a" d="M340.8,30.742l5.528-.975L336.089,2.2H330.2Z" transform="translate(-270.55 -1.803)"/></svg>
