<svg id="Group_125" data-name="Group 125" xmlns="http://www.w3.org/2000/svg" viewBox="0 0 170 67.966">
  <defs>
    <style>
      .cls-1 {
        fill: #092856;
      }

      .cls-2 {
        fill: #e8554d;
      }
    </style>
  </defs>
  <g id="Group_121" data-name="Group 121" transform="translate(1.418 62.293)">
    <path id="Path_262" data-name="Path 262" class="cls-1" d="M5,219.9H7.156a1.835,1.835,0,0,1,2.071,1.815v.028a1.939,1.939,0,0,1-2.184,1.872H5.964v1.759H5Zm2.071,2.837c.738,0,1.191-.4,1.191-.964v-.028c0-.652-.454-.964-1.191-.964H5.964v1.957Z" transform="translate(-5 -219.815)"/>
    <path id="Path_263" data-name="Path 263" class="cls-1" d="M27.2,219.9h2.44a2.284,2.284,0,0,1,1.589.539,1.673,1.673,0,0,1,.454,1.191v.028a1.607,1.607,0,0,1-1.3,1.645l1.475,2.071H30.717l-1.333-1.9H28.193v1.9h-.964V219.9Zm2.383,2.723c.681,0,1.135-.369,1.135-.908v-.028c0-.6-.425-.908-1.135-.908h-1.39v1.844Z" transform="translate(-20.903 -219.815)"/>
    <path id="Path_264" data-name="Path 264" class="cls-1" d="M50.2,222.437h0a2.865,2.865,0,0,1,5.73-.028v.028a2.865,2.865,0,0,1-5.73,0Zm4.709,0h0a1.873,1.873,0,0,0-1.872-1.957,1.842,1.842,0,0,0-1.844,1.929v.028a1.865,1.865,0,0,0,1.872,1.929A1.843,1.843,0,0,0,54.909,222.437Z" transform="translate(-37.378 -219.6)"/>
    <path id="Path_265" data-name="Path 265" class="cls-1" d="M78.3,219.9h2.042a2.74,2.74,0,0,1,2.922,2.723v.028a2.74,2.74,0,0,1-2.922,2.723H78.3Zm.964.879V224.5h1.078a1.772,1.772,0,0,0,1.9-1.844v-.028a1.794,1.794,0,0,0-1.9-1.872H79.264Z" transform="translate(-57.507 -219.815)"/>
    <path id="Path_266" data-name="Path 266" class="cls-1" d="M103.4,223.049V219.9h.964v3.12c0,1.021.511,1.56,1.39,1.56a1.317,1.317,0,0,0,1.39-1.5v-3.149h.964v3.092a2.356,2.356,0,1,1-4.709.028Z" transform="translate(-75.487 -219.815)"/>
    <path id="Path_267" data-name="Path 267" class="cls-1" d="M127.5,222.437h0a2.768,2.768,0,0,1,2.808-2.837,2.851,2.851,0,0,1,2.156.851l-.624.709a2.195,2.195,0,0,0-1.532-.681,1.838,1.838,0,0,0-1.815,1.929v.028a1.838,1.838,0,0,0,1.815,1.929,2.026,2.026,0,0,0,1.56-.709l.624.624a2.8,2.8,0,0,1-2.213.964A2.738,2.738,0,0,1,127.5,222.437Z" transform="translate(-92.751 -219.6)"/>
    <path id="Path_268" data-name="Path 268" class="cls-1" d="M152.93,220.879H151.2V220h4.454v.879h-1.73v4.567h-.964v-4.567Z" transform="translate(-109.728 -219.887)"/>
    <path id="Path_269" data-name="Path 269" class="cls-1" d="M186.4,219.9h2.042a2.74,2.74,0,0,1,2.922,2.723v.028a2.74,2.74,0,0,1-2.922,2.723H186.4Zm.964.879V224.5h1.078a1.772,1.772,0,0,0,1.9-1.844v-.028a1.794,1.794,0,0,0-1.9-1.872h-1.078Z" transform="translate(-134.943 -219.815)"/>
    <path id="Path_270" data-name="Path 270" class="cls-1" d="M211.8,219.9h4.056v.851h-3.092v1.418h2.752v.851h-2.752V224.5h3.149v.851h-4.085V219.9Z" transform="translate(-153.138 -219.815)"/>
    <path id="Path_271" data-name="Path 271" class="cls-1" d="M232.9,224.366l.567-.681a2.5,2.5,0,0,0,1.73.709c.6,0,.964-.284.964-.681v-.028c0-.4-.227-.6-1.248-.823-1.163-.284-1.815-.624-1.815-1.645v-.028a1.684,1.684,0,0,1,1.872-1.589,3.172,3.172,0,0,1,1.986.681l-.511.738a2.474,2.474,0,0,0-1.475-.567c-.567,0-.879.284-.879.652v.028c0,.426.255.6,1.3.851,1.163.284,1.759.709,1.759,1.589v.028c0,1.021-.794,1.645-1.957,1.645A3.334,3.334,0,0,1,232.9,224.366Z" transform="translate(-168.253 -219.6)"/>
    <path id="Path_272" data-name="Path 272" class="cls-1" d="M255.8,219.9h.964v5.475H255.8Z" transform="translate(-184.657 -219.815)"/>
    <path id="Path_273" data-name="Path 273" class="cls-1" d="M267.4,222.437h0a2.768,2.768,0,0,1,2.808-2.837,2.909,2.909,0,0,1,2.1.738l-.6.738a2.094,2.094,0,0,0-1.532-.6,1.85,1.85,0,0,0-1.787,1.929v.028a1.825,1.825,0,0,0,1.872,1.957,2.264,2.264,0,0,0,1.333-.426v-1.021h-1.39v-.823h2.326v2.3a3.5,3.5,0,0,1-2.269.851A2.764,2.764,0,0,1,267.4,222.437Z" transform="translate(-192.967 -219.6)"/>
    <path id="Path_274" data-name="Path 274" class="cls-1" d="M293.7,219.9h.879l2.922,3.773V219.9h.936v5.475h-.794l-3.007-3.886v3.886H293.7Z" transform="translate(-211.806 -219.815)"/>
    <path id="Path_275" data-name="Path 275" class="cls-1" d="M332.3,225.126h-1.5v-.851h1.5V222.8h.879v1.475h1.5v.879h-1.5v1.5H332.3Z" transform="translate(-238.382 -221.892)"/>
    <path id="Path_276" data-name="Path 276" class="cls-1" d="M365.23,220.879H363.5V220h4.454v.879h-1.73v4.567h-.964v-4.567Z" transform="translate(-261.806 -219.887)"/>
    <path id="Path_277" data-name="Path 277" class="cls-1" d="M386.6,219.9h4.056v.851h-3.092v1.418h2.752v.851h-2.752V224.5h3.12v.851H386.6Z" transform="translate(-278.354 -219.815)"/>
    <path id="Path_278" data-name="Path 278" class="cls-1" d="M408.1,222.437h0a2.768,2.768,0,0,1,2.808-2.837,2.851,2.851,0,0,1,2.156.851l-.624.709a2.195,2.195,0,0,0-1.532-.681,1.838,1.838,0,0,0-1.815,1.929v.028a1.838,1.838,0,0,0,1.815,1.929,2.026,2.026,0,0,0,1.56-.709l.624.624a2.8,2.8,0,0,1-2.213.964A2.738,2.738,0,0,1,408.1,222.437Z" transform="translate(-293.755 -219.6)"/>
    <path id="Path_279" data-name="Path 279" class="cls-1" d="M433.1,219.9h.964v2.269h2.61V219.9h.964v5.475h-.964v-2.3h-2.61v2.3H433.1Z" transform="translate(-311.663 -219.815)"/>
    <path id="Path_280" data-name="Path 280" class="cls-1" d="M457.9,219.9h.879l2.922,3.773V219.9h.936v5.475h-.794l-3.007-3.886v3.886H457.9Z" transform="translate(-329.428 -219.815)"/>
    <path id="Path_281" data-name="Path 281" class="cls-1" d="M482.7,222.437h0a2.865,2.865,0,0,1,5.73-.028v.028a2.865,2.865,0,0,1-5.73,0Zm4.709,0h0a1.873,1.873,0,0,0-1.872-1.957,1.842,1.842,0,0,0-1.844,1.929v.028a1.865,1.865,0,0,0,1.872,1.929A1.843,1.843,0,0,0,487.409,222.437Z" transform="translate(-347.194 -219.6)"/>
    <path id="Path_282" data-name="Path 282" class="cls-1" d="M510.8,219.9h.965v4.6h2.865v.879H510.8Z" transform="translate(-367.323 -219.815)"/>
    <path id="Path_283" data-name="Path 283" class="cls-1" d="M529.8,222.437h0a2.865,2.865,0,0,1,5.73-.028v.028a2.865,2.865,0,0,1-5.73,0Zm4.709,0h0a1.873,1.873,0,0,0-1.872-1.957,1.842,1.842,0,0,0-1.844,1.929v.028a1.866,1.866,0,0,0,1.872,1.929A1.843,1.843,0,0,0,534.509,222.437Z" transform="translate(-380.933 -219.6)"/>
    <path id="Path_284" data-name="Path 284" class="cls-1" d="M557.1,222.437h0a2.768,2.768,0,0,1,2.808-2.837,2.909,2.909,0,0,1,2.1.738l-.6.738a2.094,2.094,0,0,0-1.532-.6,1.85,1.85,0,0,0-1.787,1.929v.028a1.825,1.825,0,0,0,1.872,1.957,2.265,2.265,0,0,0,1.333-.426v-1.021h-1.39v-.823h2.326v2.3a3.5,3.5,0,0,1-2.269.851A2.748,2.748,0,0,1,557.1,222.437Z" transform="translate(-400.489 -219.6)"/>
    <path id="Path_285" data-name="Path 285" class="cls-1" d="M582.684,223.219,580.5,219.9h1.135l1.532,2.411,1.56-2.411h1.106l-2.184,3.29v2.184h-.964Z" transform="translate(-417.251 -219.815)"/>
  </g>
  <g id="Group_123" data-name="Group 123">
    <path id="Path_286" data-name="Path 286" class="cls-1" d="M439.752,46.487H431.1V3.2h19.176a14.241,14.241,0,0,1,10.07,24.31,14.139,14.139,0,0,1-10.07,4.17H439.752Zm0-23.487h10.524a5.56,5.56,0,0,0,0-11.12H439.752Z" transform="translate(-308.812 -2.292)"/>
    <rect id="Rectangle_173" data-name="Rectangle 173" class="cls-1" width="8.652" height="43.287" transform="translate(160.696 0.908)"/>
    <g id="Group_122" data-name="Group 122" transform="translate(39.912 0.908)">
      <rect id="Rectangle_174" data-name="Rectangle 174" class="cls-1" width="8.652" height="43.287"/>
      <path id="Path_287" data-name="Path 287" class="cls-1" d="M155.9,123.1" transform="translate(-151.588 -89.089)"/>
      <path id="Path_288" data-name="Path 288" class="cls-1" d="M167.162,3.2,144.1,31.4l6.723,5.475L178.367,3.2Z" transform="translate(-143.136 -3.2)"/>
      <path id="Path_289" data-name="Path 289" class="cls-1" d="M195.63,91.76,174.894,66.4,168.2,71.9,184.454,91.76Z" transform="translate(-160.399 -48.472)"/>
    </g>
    <path id="Path_290" data-name="Path 290" class="cls-1" d="M17.332,45.1A17.336,17.336,0,0,1,0,27.8V17.332A17.3,17.3,0,0,1,5.078,5.078,17.332,17.332,0,0,1,34.664,17.332V27.8A17.288,17.288,0,0,1,17.332,45.1Zm0-36.451A8.668,8.668,0,0,0,8.68,17.3V27.8a8.652,8.652,0,1,0,17.3,0V17.332A8.674,8.674,0,0,0,17.332,8.652Z"/>
    <path id="Path_291" data-name="Path 291" class="cls-2" d="M293.068,118.077l-4.368-7.46L305.1,101l6.978,5.957Z" transform="translate(-206.806 -72.35)"/>
    <path id="Path_292" data-name="Path 292" class="cls-2" d="M340.906,118.077l4.368-7.46L328.878,101l-6.978,5.957Z" transform="translate(-230.589 -72.35)"/>
    <path id="Path_293" data-name="Path 293" class="cls-1" d="M282.18,48.019l-8.68-1.532L289.584,3.2h9.247Z" transform="translate(-195.918 -2.292)"/>
    <path id="Path_294" data-name="Path 294" class="cls-1" d="M346.851,48.019l8.68-1.532L339.447,3.2H330.2Z" transform="translate(-236.534 -2.292)"/>
  </g>
</svg>
